<?xml version="1.0" encoding="UTF-8"?>
<svg width="1200" height="400" viewBox="0 0 1200 400" xmlns="http://www.w3.org/2000/svg" role="img" aria-labelledby="title desc">
  <title>Evolution Series - Light Mode</title>
  <desc>A modern, light-mode banner with a sidebar listing Embark (Depracated), Emergence (Depracated), and a highlighted Elevation. Main title reads Evolution Series.</desc>
  <defs>
    <!-- Background gradient -->
    <linearGradient id="bg-grad" x1="0" y1="0" x2="1" y2="1">
      <stop offset="0%" stop-color="#ffffff"/>
      <stop offset="100%" stop-color="#EEF3FF"/>
    </linearGradient>

    <!-- Accent gradient for highlights -->
    <linearGradient id="accent-grad" x1="0" y1="0" x2="1" y2="1">
      <stop offset="0%" stop-color="#7C3AED"/>
      <stop offset="100%" stop-color="#2563EB"/>
    </linearGradient>

    <!-- Soft glow radial gradients -->
    <radialGradient id="glow-a" cx="50%" cy="50%" r="0.6">
      <stop offset="0%" stop-color="#93C5FD" stop-opacity="0.35"/>
      <stop offset="100%" stop-color="#93C5FD" stop-opacity="0"/>
    </radialGradient>
    <radialGradient id="glow-b" cx="50%" cy="50%" r="0.7">
      <stop offset="0%" stop-color="#C4B5FD" stop-opacity="0.35"/>
      <stop offset="100%" stop-color="#C4B5FD" stop-opacity="0"/>
    </radialGradient>

    <!-- Subtle shadow for sidebar and pills -->
    <filter id="softShadow" x="-50%" y="-50%" width="200%" height="200%">
      <feDropShadow dx="0" dy="6" stdDeviation="10" flood-color="#1F2937" flood-opacity="0.15"/>
    </filter>

    <!-- Fine grid pattern overlay -->
    <pattern id="grid" width="32" height="32" patternUnits="userSpaceOnUse">
      <path d="M32 0H0V32" fill="none" stroke="#DCE3F7" stroke-width="1"/>
    </pattern>
  </defs>

  <!-- Background -->
  <rect width="1200" height="400" fill="url(#bg-grad)"/>

  <!-- Decorative glows -->
  <circle cx="980" cy="-40" r="260" fill="url(#glow-a)"/>
  <circle cx="1120" cy="320" r="240" fill="url(#glow-b)"/>

  <!-- Subtle grid overlay -->
  <rect width="1200" height="400" fill="url(#grid)" opacity="0.35"/>

  <!-- Sidebar with series list -->
  <g transform="translate(40,40)" filter="url(#softShadow)">
    <rect x="0" y="0" width="300" height="320" rx="20" fill="#FFFFFF"/>
    <!-- Sidebar header accent line -->
    <rect x="24" y="28" width="44" height="6" rx="3" fill="url(#accent-grad)"/>
    <text x="24" y="62" font-family="Inter, Segoe UI, Roboto, Helvetica Neue, Arial, sans-serif" font-size="18" font-weight="600" fill="#111827" letter-spacing="0.3px">Series</text>

    <!-- Embark (Depracated) -->
    <g transform="translate(24,96)">
      <circle cx="10" cy="10" r="6" fill="#CBD5E1"/>
      <text x="28" y="15" font-family="Inter, Segoe UI, Roboto, Helvetica Neue, Arial, sans-serif" font-size="16" fill="#6B7280">Embark (Depracated)</text>
    </g>

    <!-- Emergence (Depracated) -->
    <g transform="translate(24,152)">
      <circle cx="10" cy="10" r="6" fill="#CBD5E1"/>
      <text x="28" y="15" font-family="Inter, Segoe UI, Roboto, Helvetica Neue, Arial, sans-serif" font-size="16" fill="#6B7280">Emergence (Depracated)</text>
    </g>

    <!-- Elevation (highlight) -->
    <g transform="translate(16,208)">
      <rect x="0" y="-6" width="268" height="44" rx="12" fill="#F3F6FF"/>
      <rect x="12" y="7" width="18" height="18" rx="9" fill="url(#accent-grad)"/>
      <text x="40" y="16" dominant-baseline="middle" font-family="Inter, Segoe UI, Roboto, Helvetica Neue, Arial, sans-serif" font-size="18" font-weight="700" fill="#111827" letter-spacing="0.2px">Elevation</text>
    </g>
  </g>

  <!-- Main title area -->
  <g transform="translate(380,90)">
    <!-- Accent shape behind title -->
    <path d="M0 120 C120 10, 300 10, 520 120" fill="none" stroke="url(#accent-grad)" stroke-width="8" opacity="0.25"/>
    <text x="0" y="120" font-family="Inter, Segoe UI, Roboto, Helvetica Neue, Arial, sans-serif" font-size="64" font-weight="800" fill="#0F172A" letter-spacing="0.5px">Evolution Series</text>
    <rect x="2" y="140" width="220" height="8" rx="4" fill="url(#accent-grad)"/>
  </g>

  <!-- Decorative corner arcs -->
  <g transform="translate(360,320)" opacity="0.35">
    <path d="M0 40 C120 -40, 240 -40, 360 40" fill="none" stroke="#C7D2FE" stroke-width="2"/>
    <path d="M40 60 C160 -20, 280 -20, 400 60" fill="none" stroke="#BFDBFE" stroke-width="2"/>
  </g>
</svg>
